# xmcd
#
# Track frame offsets:
#	150
#	14296
#	27031
#	38508
#	51290
#	68813
#	80561
#	94170
#	109323
#	120254
#	130885
#	150219
#	164766
#	177125
#	190828
#	203058
#	215419
#	228403
#	243272
#	252872
#	268109
#	283797
#
# Disc length: 3995 seconds
#
# Revision: 3
# Processed by: cddbd v1.4PL0 Copyright (c) Steve Scherf et al.
# Submitted via: MusicManager 7.0.0.0 
#
DISCID=280f9916
DTITLE=Various Artist - Contemporary Country - Mid '70s
DYEAR=1992
DGENRE=
TTITLE0=George Jones - The Grand Tour
TTITLE1=Gary Stewart - She's Acting Single
TTITLE2=Conway Twitty and Loretta Lynn - Louisiana Woman, Mississipi Man
TTITLE3=Don Williams - You're My Best Friend
TTITLE4=Emmylou Harris - Together Again
TTITLE5=Freddy Frender - Before The Next Teardrop Falls
TTITLE6=Mickey Gilley - Don't The Girls All Get Prettier At Closing Time
TTITLE7=B.J. Thomas - Another Somebody Done Somebody Wrong Song
TTITLE8=Tanya Tucker - Would You Lay With Me
TTITLE9=Willie Nelson - Blue Eyes Crying In The Rain
TTITLE10=Marty Robbins - El Paso City
TTITLE11=Glen Campbell - Rhinestone Cowboy
TTITLE12=Charlie Rich - The Most Beautiful Girl
TTITLE13=Conway Twitty - You've Never Been This Far Before
TTITLE14=Dolly Parton - Jolene
TTITLE15=Merle Haggard - If We Make It Through December
TTITLE16=Waylon Jennings - Are You Sure Hank Done It This Way
TTITLE17=Jeanne Pruett - Satin Sheets
TTITLE18=Tom T. Hall - I Love
TTITLE19=Jessi Colter - I'm Not Lisa
TTITLE20=Don Williams - Till The River Runs Dry
TTITLE21=Narvel Felts - Reconsider Me
EXTD=
EXTT0=
EXTT1=
EXTT2=
EXTT3=
EXTT4=
EXTT5=
EXTT6=
EXTT7=
EXTT8=
EXTT9=
EXTT10=
EXTT11=
EXTT12=
EXTT13=
EXTT14=
EXTT15=
EXTT16=
EXTT17=
EXTT18=
EXTT19=
EXTT20=
EXTT21=
PLAYORDER=
